<svg width="73" height="23" viewBox="0 0 73 23" fill="none" xmlns="http://www.w3.org/2000/svg">
<path fill-rule="evenodd" clip-rule="evenodd" d="M28.1515 5.92371C27.885 6.03397 27.6728 6.33531 27.6381 6.65312C27.5684 7.28945 28.2056 7.78551 28.8015 7.55872C29.1264 7.43506 29.3989 7.06771 29.3985 6.7539C29.3978 6.14836 28.7121 5.69186 28.1515 5.92371ZM38.0941 7.85087V9.84609L37.7556 9.58616C36.1044 8.31849 33.7167 8.46203 32.2435 9.91765C30.1534 11.9828 30.7222 15.4663 33.3545 16.721C34.8062 17.413 36.4258 17.2515 37.7556 16.2824L38.0941 16.0357V16.4694V16.9031H38.7356H39.3771V11.3794V5.85571H38.7356H38.0941V7.85087ZM44.5087 8.82125C43.9668 8.96679 43.4655 9.2077 43.0648 9.51531C42.8783 9.65857 42.7099 9.77574 42.6906 9.77574C42.6714 9.77574 42.6556 9.58331 42.6556 9.3481V8.92046H42.0142H41.3727V12.9118V16.9031H42.0097H42.6468L42.6702 14.5689C42.6925 12.3477 42.7013 12.2157 42.8526 11.8427C43.0517 11.352 43.4131 10.8944 43.8767 10.5461C44.242 10.2716 44.9996 9.98956 45.3715 9.98956H45.5778V9.3481V8.70664L45.2393 8.71135C45.0531 8.71391 44.7243 8.76338 44.5087 8.82125ZM49.5691 8.81783C48.0504 9.14519 46.7505 10.4296 46.3916 11.9576C46.2355 12.622 46.2879 13.7043 46.5063 14.3271C46.7243 14.9489 47.2903 15.7696 47.7711 16.1613C48.5803 16.8205 49.4195 17.1224 50.46 17.1288C51.4621 17.1349 52.303 16.8609 53.0611 16.2811L53.3823 16.0354L53.4035 16.4692L53.4247 16.9031H54.0628H54.7008V12.9118V8.92046H54.0593H53.4179V9.38602V9.85165L53.0414 9.56741C52.0621 8.82795 50.793 8.55405 49.5691 8.81783ZM59.7967 8.83935C59.2454 8.9973 58.7836 9.22259 58.3809 9.53014C58.204 9.6652 58.0412 9.77574 58.0193 9.77574C57.9973 9.77574 57.9794 9.58331 57.9794 9.3481V8.92046H57.3379H56.6965V12.9118V16.9031H57.3379H57.9794V14.804C57.9794 13.5213 58.0105 12.5581 58.0595 12.3273C58.4185 10.6354 60.1297 9.62144 61.7672 10.1303C62.621 10.3957 63.1862 10.9014 63.6012 11.7714L63.7881 12.1634L63.8103 14.5332L63.8325 16.9031H64.4696H65.1067L65.1081 14.9609C65.1089 13.8926 65.1412 12.7997 65.1799 12.5322C65.3256 11.5243 65.8912 10.7434 66.8014 10.2936C67.3209 10.0368 67.3755 10.0252 68.0645 10.0252C68.7535 10.0252 68.8081 10.0368 69.3277 10.2936C70.2531 10.7509 70.817 11.5428 70.9508 12.5729C70.9877 12.8572 71.019 13.9479 71.0202 14.9965L71.0224 16.9031H71.669H72.3156L72.2923 14.5332L72.2692 12.1634L72.0513 11.5544C71.7837 10.8063 71.416 10.2402 70.8972 9.77788C69.5756 8.59995 67.6617 8.36795 66.0745 9.1933C65.6014 9.43933 64.8233 10.118 64.6002 10.4792L64.4958 10.6481L64.1921 10.2546C63.6626 9.56812 62.8466 9.04712 61.9379 8.81512C61.3758 8.67158 60.3414 8.68334 59.7967 8.83935ZM27.8308 12.9118V16.9031H28.5079H29.185V12.9118V8.92046H28.5079H27.8308V12.9118ZM36.0414 10.1369C37.1102 10.497 37.8338 11.3474 38.0328 12.4774C38.1881 13.3589 37.8392 14.3792 37.1676 15.0074C35.7011 16.3792 33.413 15.9538 32.5219 14.1436C32.2995 13.6918 32.2854 13.6184 32.2854 12.9133C32.2854 12.2179 32.3019 12.1285 32.5129 11.6829C33.1513 10.3353 34.6635 9.67268 36.0414 10.1369ZM51.3734 10.1332C53.4747 10.7822 54.0989 13.5038 52.4913 15.0074C51.1054 16.3039 48.9228 15.9803 47.9434 14.3332C47.3891 13.4009 47.4869 12.062 48.1757 11.1532C48.9265 10.163 50.1776 9.76384 51.3734 10.1332Z" fill="#282828"/>
<path fill-rule="evenodd" clip-rule="evenodd" d="M7.01391 0.0991006C3.75507 0.736369 1.18746 3.14912 0.377008 6.33571C0.202734 7.02095 0.158452 7.41999 0.124364 8.61399L0.0829368 10.0615L0.331502 10.318C0.5176 10.5101 0.654768 10.5745 0.877156 10.5745C1.58673 10.5745 1.70334 10.3177 1.75635 8.63907C1.80373 7.1396 1.95313 6.47263 2.47236 5.44364C3.28061 3.84176 4.62546 2.67998 6.38271 2.06552C7.03886 1.83613 7.30724 1.789 8.13604 1.75787C9.64146 1.70132 10.598 1.97716 12.1256 2.90811C12.9644 3.41941 13.3001 3.46401 13.6566 3.1115C13.9432 2.82826 13.9737 2.29819 13.7226 1.96866C13.3623 1.49599 11.4937 0.522965 10.3787 0.227345C9.46882 -0.0139129 7.89783 -0.0737436 7.01391 0.0991006ZM15.5979 3.39703C15.3559 3.48833 15.1102 3.79043 15.0619 4.05609C14.9763 4.5264 15.1823 4.77978 16.104 5.33837C17.6332 6.26503 18.4862 7.14574 19.0967 8.42869C19.6143 9.51633 19.7125 10.0045 19.7145 11.5002C19.716 12.6366 19.6916 12.8854 19.525 13.4327C19.1867 14.5445 18.7069 15.3873 17.9589 16.184C17.2974 16.8884 16.9083 17.1615 14.497 18.6134C10.6924 20.9041 10.1951 21.129 8.7029 21.2332C6.83515 21.3637 5.01527 20.6262 3.60282 19.1664C2.20504 17.7219 1.65482 16.2414 1.65343 13.9208C1.65278 12.9507 1.64862 12.9286 1.41645 12.6605C1.22089 12.4347 1.12107 12.3875 0.837278 12.3875C0.550384 12.3875 0.453991 12.4342 0.247179 12.6731L0 12.9585L0.0439557 14.3541C0.0928859 15.909 0.281675 16.8723 0.743414 17.9232C1.91505 20.5896 4.54056 22.5596 7.43528 22.9444C8.79065 23.1247 10.4202 22.8595 11.6932 22.2517C12.5268 21.8537 17.74 18.7077 18.2891 18.2713C18.8488 17.8264 19.7222 16.8891 20.0758 16.3538C20.5051 15.7037 21.0425 14.4543 21.2425 13.6409C21.3998 13.0016 21.4272 12.674 21.425 11.4581C21.4219 9.7528 21.2839 9.08793 20.6554 7.74927C19.8663 6.06845 18.9588 5.11571 17.0086 3.9201C16.1112 3.36993 15.8885 3.28738 15.5979 3.39703ZM7.80984 3.51038C6.21382 3.67699 4.60205 4.82926 3.89697 6.30769C3.40269 7.34434 3.3682 7.68304 3.3682 11.5002C3.3682 15.3099 3.40359 15.6606 3.89053 16.6754C4.53094 18.0098 5.81927 19.0514 7.27976 19.4155C7.94709 19.5819 9.09075 19.5444 9.72627 19.3355C10.288 19.1508 11.7845 18.3337 12.0358 18.0744C12.1179 17.9897 12.2054 17.7643 12.2301 17.5737C12.2709 17.2605 12.2475 17.1985 11.9875 16.9302C11.8008 16.7375 11.6227 16.6333 11.4803 16.6333C11.3596 16.6333 10.9063 16.8429 10.4731 17.0989C9.45903 17.6983 8.98368 17.8423 8.17747 17.7941C6.58764 17.6992 5.30624 16.4703 5.08043 14.8241C5.03598 14.5001 4.99961 13.0044 4.99961 11.5002C4.99961 9.99599 5.03598 8.50022 5.08043 8.17624C5.24516 6.97525 5.9279 6.03134 7.01692 5.49901C7.52107 5.25253 7.63075 5.23116 8.38069 5.23326C9.02975 5.23512 9.27196 5.2713 9.56741 5.41048C10.0739 5.64922 14.5578 8.33672 15.0823 8.71598C15.9524 9.34517 16.424 10.2166 16.4792 11.2975C16.5567 12.8132 15.9654 13.8442 14.528 14.699C13.6727 15.2077 13.4776 15.4141 13.4776 15.8105C13.4776 16.2066 13.6519 16.4987 13.9693 16.6343C14.2982 16.7749 14.493 16.7073 15.4142 16.1331C16.7072 15.3271 17.4813 14.4214 17.8837 13.244C18.1322 12.5169 18.1957 11.074 18.0124 10.3205C17.732 9.16812 17.0471 8.08418 16.1882 7.43362C15.7861 7.12908 11.2205 4.3645 10.4952 3.98633C9.73002 3.58754 8.74441 3.41276 7.80984 3.51038ZM7.64674 7.11511C6.93872 7.4523 6.70891 7.94778 6.70891 9.13732C6.70891 10.1074 6.78809 10.346 7.17252 10.5342C7.51715 10.7029 7.8445 10.6395 8.10538 10.3534C8.26416 10.1793 8.30648 10.0243 8.33992 9.49597C8.3705 9.01278 8.41135 8.84507 8.50302 8.82714C8.61213 8.80577 12.7507 11.2236 12.9443 11.4218C13.0764 11.557 12.7896 11.76 10.7864 12.9501C8.48923 14.3147 8.52014 14.298 8.41975 14.234C8.37588 14.2059 8.33992 13.9372 8.33992 13.6368C8.33992 13.0512 8.19859 12.6571 7.93665 12.5125C7.65783 12.3585 7.22382 12.4112 6.97851 12.6288C6.75996 12.8226 6.74838 12.8703 6.72139 13.6904C6.70467 14.1976 6.73329 14.6975 6.79127 14.9114C7.02288 15.7648 8.05066 16.3259 8.83852 16.0291C9.00064 15.968 10.2995 15.2175 11.7249 14.3613C14.6659 12.5946 14.7104 12.5547 14.7674 11.6307C14.8056 11.0102 14.6144 10.5379 14.1919 10.2091C13.9043 9.98547 9.76835 7.48832 9.13772 7.15769C8.66922 6.91206 8.10676 6.89599 7.64674 7.11511Z" fill="#F5821B"/>
</svg>
